{
  "accessors": [
    {
      "bufferView": 1,
      "componentType": 5126,
      "count": 2287,
      "max": [
        0.050499968230724335,
        0.025238089263439178,
        0.10100000351667404
      ],
      "min": [
        -0.050499968230724335,
        -0.024999970570206642,
        -0.00050001201452687383
      ],
      "type": "VEC3"
    },
    {
      "bufferView": 1,
      "byteOffset": 27444,
      "componentType": 5126,
      "count": 2287,
      "max": [
        1,
        1,
        1
      ],
      "min": [
        -1,
        -1,
        -1
      ],
      "type": "VEC3"
    },
    {
      "bufferView": 0,
      "componentType": 5125,
      "count": 3630,
      "max": [
        2286
      ],
      "min": [
        0
      ],
      "type": "SCALAR"
    },
    {
      "bufferView": 1,
      "byteOffset": 54888,
      "componentType": 5126,
      "count": 182,
      "max": [
        0.042261239141225815,
        0.024999970570206642,
        0.092261247336864471
      ],
      "min": [
        -0.031667169183492661,
        -0.021962279453873634,
        0.034053079783916473
      ],
      "type": "VEC3"
    },
    {
      "bufferView": 1,
      "byteOffset": 57072,
      "componentType": 5126,
      "count": 182,
      "max": [
        1,
        1,
        1
      ],
      "min": [
        -1,
        -1,
        -1
      ],
      "type": "VEC3"
    },
    {
      "bufferView": 0,
      "byteOffset": 14520,
      "componentType": 5125,
      "count": 216,
      "max": [
        181
      ],
      "min": [
        0
      ],
      "type": "SCALAR"
    },
    {
      "bufferView": 1,
      "byteOffset": 59256,
      "componentType": 5126,
      "count": 22,
      "max": [
        0.041297491639852524,
        -0.024949310347437859,
        0.09129749983549118
      ],
      "min": [
        0.035514950752258301,
        -0.02594929002225399,
        0.085514962673187256
      ],
      "type": "VEC3"
    },
    {
      "bufferView": 1,
      "byteOffset": 59520,
      "componentType": 5126,
      "count": 22,
      "max": [
        1,
        0,
        1
      ],
      "min": [
        -1,
        -1,
        -1
      ],
      "type": "VEC3"
    },
    {
      "bufferView": 0,
      "byteOffset": 15384,
      "componentType": 5125,
      "count": 30,
      "max": [
        21
      ],
      "min": [
        0
      ],
      "type": "SCALAR"
    },
    {
      "bufferView": 1,
      "byteOffset": 59784,
      "componentType": 5126,
      "count": 44,
      "max": [
        0.043224990367889404,
        -0.019999980926513672,
        0.093225002288818359
      ],
      "min": [
        -0.043224990367889404,
        -0.019999980926513672,
        0.0067749610170722008
      ],
      "type": "VEC3"
    },
    {
      "bufferView": 1,
      "byteOffset": 60312,
      "componentType": 5126,
      "count": 44,
      "max": [
        0,
        -1,
        0
      ],
      "min": [
        0,
        -1,
        0
      ],
      "type": "VEC3"
    },
    {
      "bufferView": 0,
      "byteOffset": 15504,
      "componentType": 5125,
      "count": 204,
      "max": [
        43
      ],
      "min": [
        0
      ],
      "type": "SCALAR"
    },
    {
      "bufferView": 1,
      "byteOffset": 60840,
      "componentType": 5126,
      "count": 12,
      "max": [
        0.029210029169917107,
        -0.021961510181427002,
        0.070696942508220673
      ],
      "min": [
        -0.019063940271735191,
        -0.021961679682135582,
        0.055386599153280258
      ],
      "type": "VEC3"
    },
    {
      "bufferView": 1,
      "byteOffset": 60984,
      "componentType": 5126,
      "count": 12,
      "max": [
        0,
        -1,
        2.2055799036024837e-06
      ],
      "min": [
        0,
        -1,
        0
      ],
      "type": "VEC3"
    },
    {
      "bufferView": 0,
      "byteOffset": 16320,
      "componentType": 5125,
      "count": 12,
      "max": [
        11
      ],
      "min": [
        0
      ],
      "type": "SCALAR"
    }
  ],
  "asset": {
    "generator": "Sketchfab (OSG glTF plugin)",
    "version": "2.0"
  },
  "bufferViews": [
    {
      "buffer": 0,
      "byteLength": 16368,
      "byteOffset": 0,
      "name": "floatBufferViews",
      "target": 34963
    },
    {
      "buffer": 0,
      "byteLength": 61128,
      "byteOffset": 16368,
      "byteStride": 12,
      "name": "floatBufferViews",
      "target": 34962
    }
  ],
  "buffers": [
    {
      "byteLength": 77496,
      "uri": "scene.bin"
    }
  ],
  "materials": [
    {
      "doubleSided": true,
      "emissiveFactor": [
        0,
        0,
        0
      ],
      "name": "Clock",
      "pbrMetallicRoughness": {
        "baseColorFactor": [
          0.28044200000000002,
          0.28044200000000002,
          0.28044200000000002,
          1
        ],
        "metallicFactor": 0,
        "roughnessFactor": 0.59999999999999998
      }
    },
    {
      "doubleSided": true,
      "emissiveFactor": [
        0,
        0,
        0
      ],
      "name": "Adjusting_Thing",
      "pbrMetallicRoughness": {
        "baseColorFactor": [
          0.050976399999999998,
          0.050976399999999998,
          0.050976399999999998,
          1
        ],
        "metallicFactor": 0,
        "roughnessFactor": 0.59999999999999998
      }
    },
    {
      "doubleSided": true,
      "emissiveFactor": [
        0,
        0,
        0
      ],
      "name": "Light_Toggle",
      "pbrMetallicRoughness": {
        "baseColorFactor": [
          1,
          1,
          1,
          1
        ],
        "metallicFactor": 0,
        "roughnessFactor": 0.59999999999999998
      }
    },
    {
      "doubleSided": true,
      "emissiveFactor": [
        0,
        0,
        0
      ],
      "name": "Clock_Face",
      "pbrMetallicRoughness": {
        "baseColorFactor": [
          1,
          1,
          1,
          1
        ],
        "metallicFactor": 0,
        "roughnessFactor": 0.59999999999999998
      }
    },
    {
      "doubleSided": true,
      "emissiveFactor": [
        0,
        0,
        0
      ],
      "name": "Shiny_Material",
      "pbrMetallicRoughness": {
        "baseColorFactor": [
          0.17338899999999999,
          0.80000000000000004,
          0.27218300000000001,
          1
        ],
        "metallicFactor": 0,
        "roughnessFactor": 0.59999999999999998
      }
    }
  ],
  "meshes": [
    {
      "name": "Clock-material",
      "primitives": [
        {
          "attributes": {
            "NORMAL": 1,
            "POSITION": 0
          },
          "indices": 2,
          "material": 0,
          "mode": 4
        }
      ]
    },
    {
      "name": "Adjusting_Thing-material",
      "primitives": [
        {
          "attributes": {
            "NORMAL": 4,
            "POSITION": 3
          },
          "indices": 5,
          "material": 1,
          "mode": 4
        }
      ]
    },
    {
      "name": "Light_Toggle-material",
      "primitives": [
        {
          "attributes": {
            "NORMAL": 7,
            "POSITION": 6
          },
          "indices": 8,
          "material": 2,
          "mode": 4
        }
      ]
    },
    {
      "name": "Clock_Face-material",
      "primitives": [
        {
          "attributes": {
            "NORMAL": 10,
            "POSITION": 9
          },
          "indices": 11,
          "material": 3,
          "mode": 4
        }
      ]
    },
    {
      "name": "Shiny_Material-material",
      "primitives": [
        {
          "attributes": {
            "NORMAL": 13,
            "POSITION": 12
          },
          "indices": 14,
          "material": 4,
          "mode": 4
        }
      ]
    }
  ],
  "nodes": [
    {
      "children": [
        1
      ],
      "name": "RootNode (gltf orientation matrix)",
      "rotation": [
        -0.70710678118654746,
        -0,
        -0,
        0.70710678118654757
      ]
    },
    {
      "children": [
        2
      ],
      "name": "RootNode (model correction matrix)"
    },
    {
      "children": [
        3
      ],
      "name": "Collada visual scene group"
    },
    {
      "children": [
        4
      ],
      "name": "Clock"
    },
    {
      "children": [
        5,
        6,
        7,
        8,
        9
      ],
      "name": "Geode"
    },
    {
      "mesh": 0,
      "name": "Clock-material"
    },
    {
      "mesh": 1,
      "name": "Adjusting_Thing-material"
    },
    {
      "mesh": 2,
      "name": "Light_Toggle-material"
    },
    {
      "mesh": 3,
      "name": "Clock_Face-material"
    },
    {
      "mesh": 4,
      "name": "Shiny_Material-material"
    }
  ],
  "scene": 0,
  "scenes": [
    {
      "name": "OSG_Scene",
      "nodes": [
        0
      ]
    }
  ]
}

